<svg width="25" height="19" viewBox="0 0 25 19" fill="none" xmlns="http://www.w3.org/2000/svg">
<path d="M8.84467 17.9231L8.84466 17.9231L0.719654 9.79809C0.426792 9.50523 0.426766 9.03035 0.719672 8.73741L2.48738 6.96965L2.4874 6.96964C2.78027 6.67674 3.25516 6.67674 3.54803 6.96964L3.54805 6.96966L9.02144 12.443L9.37499 12.7965L9.72854 12.443L21.4519 0.719655C21.7448 0.426782 22.2197 0.426782 22.5126 0.719654L24.2803 2.48742L24.6319 2.13587L24.2803 2.48743C24.5732 2.78029 24.5732 3.25516 24.2803 3.54809C24.2803 3.5481 24.2803 3.54811 24.2803 3.54811L9.90534 17.9231C9.61241 18.216 9.13754 18.216 8.84467 17.9231Z" fill="white" stroke="#BABABA"/>
</svg>
