<svg width="21" height="21" viewBox="0 0 21 21" fill="none" xmlns="http://www.w3.org/2000/svg">
<path d="M13.5648 9.38472L4.32465 0.462512C3.68599 -0.154171 2.65326 -0.154171 2.0214 0.462512L0.485898 1.94517C-0.152762 2.56186 -0.152762 3.55904 0.485898 4.16917L7.02876 10.5L0.479103 16.8243C-0.159556 17.441 -0.159556 18.4381 0.479103 19.0483L2.0146 20.5375C2.65326 21.1542 3.68599 21.1542 4.31785 20.5375L13.558 11.6153C14.2035 10.9986 14.2035 10.0014 13.5648 9.38472Z" fill="black"/>
<path d="M7.43518 9.38472L16.6754 0.462512C17.314 -0.154171 18.3467 -0.154171 18.9786 0.462512L20.5141 1.94517C21.1528 2.56186 21.1528 3.55904 20.5141 4.16917L13.9712 10.5L20.5209 16.8243C21.1596 17.441 21.1596 18.4381 20.5209 19.0483L18.9854 20.5375C18.3467 21.1542 17.314 21.1542 16.6821 20.5375L7.44197 11.6153C6.79652 10.9986 6.79652 10.0014 7.43518 9.38472Z" fill="black"/>
</svg>
