<svg width="21" height="21" viewBox="0 0 21 21" fill="none" xmlns="http://www.w3.org/2000/svg">
<path d="M20.4217 5.82551L18.5307 7.71642C18.338 7.9092 18.0262 7.9092 17.8334 7.71642L13.2805 3.16348C13.0877 2.97069 13.0877 2.65896 13.2805 2.46618L15.1714 0.575271C15.9384 -0.191757 17.1854 -0.191757 17.9565 0.575271L20.4217 3.04042C21.1928 3.80745 21.1928 5.05438 20.4217 5.82551ZM11.6562 4.09047L0.885007 14.8617L0.0154351 19.8453C-0.103516 20.518 0.483035 21.1004 1.15572 20.9856L6.13935 20.1119L16.9106 9.34072C17.1033 9.14793 17.1033 8.8362 16.9106 8.64342L12.3576 4.09047C12.1607 3.89769 11.849 3.89769 11.6562 4.09047ZM5.0893 13.9388C4.86371 13.7132 4.86371 13.3522 5.0893 13.1266L11.406 6.80993C11.6316 6.58434 11.9926 6.58434 12.2181 6.80993C12.4437 7.03553 12.4437 7.39649 12.2181 7.62208L5.90145 13.9388C5.67585 14.1644 5.3149 14.1644 5.0893 13.9388ZM3.60857 17.3884H5.57741V18.8773L2.93178 19.3408L1.65614 18.0651L2.11963 15.4195H3.60857V17.3884Z" fill="white"/>
</svg>
