<svg width="20" height="20" viewBox="0 0 20 20" fill="none" xmlns="http://www.w3.org/2000/svg">
<path d="M1.42857 18.125C1.42857 18.6223 1.65434 19.0992 2.0562 19.4508C2.45806 19.8025 3.00311 20 3.57143 20H16.4286C16.9969 20 17.5419 19.8025 17.9438 19.4508C18.3457 19.0992 18.5714 18.6223 18.5714 18.125V5H1.42857V18.125ZM13.5714 8.125C13.5714 7.95924 13.6467 7.80027 13.7806 7.68306C13.9146 7.56585 14.0963 7.5 14.2857 7.5C14.4752 7.5 14.6568 7.56585 14.7908 7.68306C14.9247 7.80027 15 7.95924 15 8.125V16.875C15 17.0408 14.9247 17.1997 14.7908 17.3169C14.6568 17.4342 14.4752 17.5 14.2857 17.5C14.0963 17.5 13.9146 17.4342 13.7806 17.3169C13.6467 17.1997 13.5714 17.0408 13.5714 16.875V8.125ZM9.28571 8.125C9.28571 7.95924 9.36097 7.80027 9.49492 7.68306C9.62888 7.56585 9.81056 7.5 10 7.5C10.1894 7.5 10.3711 7.56585 10.5051 7.68306C10.639 7.80027 10.7143 7.95924 10.7143 8.125V16.875C10.7143 17.0408 10.639 17.1997 10.5051 17.3169C10.3711 17.4342 10.1894 17.5 10 17.5C9.81056 17.5 9.62888 17.4342 9.49492 17.3169C9.36097 17.1997 9.28571 17.0408 9.28571 16.875V8.125ZM5 8.125C5 7.95924 5.07526 7.80027 5.20921 7.68306C5.34316 7.56585 5.52485 7.5 5.71429 7.5C5.90373 7.5 6.08541 7.56585 6.21936 7.68306C6.35332 7.80027 6.42857 7.95924 6.42857 8.125V16.875C6.42857 17.0408 6.35332 17.1997 6.21936 17.3169C6.08541 17.4342 5.90373 17.5 5.71429 17.5C5.52485 17.5 5.34316 17.4342 5.20921 17.3169C5.07526 17.1997 5 17.0408 5 16.875V8.125ZM19.2857 1.25001H13.9286L13.5089 0.519538C13.42 0.363372 13.2831 0.232008 13.1135 0.140225C12.944 0.0484421 12.7485 -0.00011828 12.5491 6.84872e-06H7.44643C7.24749 -0.000662313 7.05236 0.047717 6.8834 0.139602C6.71443 0.231487 6.57846 0.363161 6.49107 0.519538L6.07143 1.25001H0.714286C0.524845 1.25001 0.343164 1.31585 0.209209 1.43306C0.0752549 1.55027 0 1.70925 0 1.87501L0 3.12501C0 3.29077 0.0752549 3.44974 0.209209 3.56695C0.343164 3.68416 0.524845 3.75001 0.714286 3.75001H19.2857C19.4752 3.75001 19.6568 3.68416 19.7908 3.56695C19.9247 3.44974 20 3.29077 20 3.12501V1.87501C20 1.70925 19.9247 1.55027 19.7908 1.43306C19.6568 1.31585 19.4752 1.25001 19.2857 1.25001Z" fill="black"/>
</svg>
